<?xml version="1.0" encoding="UTF-8" standalone="no"?>
<!DOCTYPE svg PUBLIC "-//W3C//DTD SVG 1.1//EN"
 "http://www.w3.org/Graphics/SVG/1.1/DTD/svg11.dtd">
<!-- Generated by graphviz version 2.36.0 (20140111.2315)
 -->
<!-- Title: IControl Pages: 1 -->
<!--zoomable 1370 -->
<svg id="main" version="1.1" xmlns="http://www.w3.org/2000/svg" xmlns:xlink="http://www.w3.org/1999/xlink" xml:space="preserve" onload="init(evt)">
<style type="text/css"><![CDATA[
.edge:hover path { stroke: red; }
.edge:hover polygon { stroke: red; fill: red; }
]]></style>
<script type="text/javascript"><![CDATA[
var edges = document.getElementsByTagName('g');
if (edges && edges.length) {
  for (var i=0;i<edges.length;i++) {
    if (edges[i].id.substr(0,4)=='edge') {
      edges[i].setAttribute('class','edge');
    }
  }
}
]]></script>
        <defs>
                <circle id="rim" cx="0" cy="0" r="7"/>
                <circle id="rim2" cx="0" cy="0" r="3.5"/>
                <g id="zoomPlus">
                        <use xlink:href="#rim" fill="#404040">
                                <set attributeName="fill" to="#808080" begin="zoomplus.mouseover" end="zoomplus.mouseout"/>
                        </use>
                        <path d="M-4,0h8M0,-4v8" fill="none" stroke="white" stroke-width="1.5" pointer-events="none"/>
                </g>
                <g id="zoomMin">
                        <use xlink:href="#rim" fill="#404040">
                                <set attributeName="fill" to="#808080" begin="zoomminus.mouseover" end="zoomminus.mouseout"/>
                        </use>
                        <path d="M-4,0h8" fill="none" stroke="white" stroke-width="1.5" pointer-events="none"/>
                </g>
                <g id="dirArrow">
                        <path fill="none" stroke="white" stroke-width="1.5" d="M0,-3.0v7 M-2.5,-0.5L0,-3.0L2.5,-0.5"/>
                </g>
               <g id="resetDef">
                       <use xlink:href="#rim2" fill="#404040">
                               <set attributeName="fill" to="#808080" begin="reset.mouseover" end="reset.mouseout"/>
                       </use>
               </g>
        </defs>

<script type="text/javascript">
var viewWidth = 386;
var viewHeight = 1370;
var sectionId = 'dynsection-0';
</script>
<script xlink:href="svgpan.js"/>
<svg id="graph" class="graph">
<g id="viewport">
<title>IControl</title>
<polygon fill="white" stroke="none" points="-4,4 -4,-1366 382,-1366 382,4 -4,4"/>
<!-- Node1 -->
<g id="node1" class="node"><title>Node1</title>
<polygon fill="#bfbfbf" stroke="black" points="0.5,-674.5 0.5,-693.5 51.5,-693.5 51.5,-674.5 0.5,-674.5"/>
<text text-anchor="middle" x="26" y="-681.5" font-family="Helvetica,sans-Serif" font-size="10.00">IControl</text>
</g>
<!-- Node2 -->
<g id="node2" class="node"><title>Node2</title>
<g id="a_node2"><a xlink:href="class_g_f_x_label_control.html" target="_top" xlink:title="Control to display the graphics backend. ">
<polygon fill="white" stroke="black" points="112,-1342.5 112,-1361.5 204,-1361.5 204,-1342.5 112,-1342.5"/>
<text text-anchor="middle" x="158" y="-1349.5" font-family="Helvetica,sans-Serif" font-size="10.00">GFXLabelControl</text>
</a>
</g>
</g>
<!-- Node1&#45;&gt;Node2 -->
<g id="edge1" class="edge"><title>Node1&#45;&gt;Node2</title>
<path fill="none" stroke="midnightblue" d="M27.5437,-703.882C30.5525,-807.583 46.5552,-1283.59 88,-1333 94.1481,-1340.33 102.84,-1344.97 111.989,-1347.87"/>
<polygon fill="midnightblue" stroke="midnightblue" points="31.0408,-703.728 27.2594,-693.831 24.0436,-703.926 31.0408,-703.728"/>
</g>
<!-- Node3 -->
<g id="node3" class="node"><title>Node3</title>
<g id="a_node3"><a xlink:href="class_i_bitmap_control.html" target="_top" xlink:title="A basic control to draw a bitmap, or one frame of a stacked bitmap depending on the current value...">
<polygon fill="white" stroke="black" points="117,-1304.5 117,-1323.5 199,-1323.5 199,-1304.5 117,-1304.5"/>
<text text-anchor="middle" x="158" y="-1311.5" font-family="Helvetica,sans-Serif" font-size="10.00">IBitmapControl</text>
</a>
</g>
</g>
<!-- Node1&#45;&gt;Node3 -->
<g id="edge2" class="edge"><title>Node1&#45;&gt;Node3</title>
<path fill="none" stroke="midnightblue" d="M27.6686,-703.95C31.1973,-804.067 48.9874,-1248.76 88,-1295 95.2108,-1303.55 105.88,-1308.43 116.684,-1311.18"/>
<polygon fill="midnightblue" stroke="midnightblue" points="31.1587,-703.598 27.3161,-693.725 24.1628,-703.839 31.1587,-703.598"/>
</g>
<!-- Node5 -->
<g id="node5" class="node"><title>Node5</title>
<g id="a_node5"><a xlink:href="class_i_button_control_base.html" target="_top" xlink:title="A base class for buttons/momentary switches &#45; cannot be linked to parameters. ">
<polygon fill="white" stroke="black" points="107,-1266.5 107,-1285.5 209,-1285.5 209,-1266.5 107,-1266.5"/>
<text text-anchor="middle" x="158" y="-1273.5" font-family="Helvetica,sans-Serif" font-size="10.00">IButtonControlBase</text>
</a>
</g>
</g>
<!-- Node1&#45;&gt;Node5 -->
<g id="edge4" class="edge"><title>Node1&#45;&gt;Node5</title>
<path fill="none" stroke="midnightblue" d="M27.7932,-703.605C31.8316,-799.229 51.3621,-1213.86 88,-1257 92.9867,-1262.87 99.6052,-1267.01 106.772,-1269.92"/>
<polygon fill="midnightblue" stroke="midnightblue" points="31.2885,-703.417 27.3774,-693.571 24.2945,-703.707 31.2885,-703.417"/>
</g>
<!-- Node8 -->
<g id="node8" class="node"><title>Node8</title>
<g id="a_node8"><a xlink:href="class_i_color_picker_control.html" target="_top" xlink:title="A control for choosing a color. ">
<polygon fill="white" stroke="black" points="107,-1228.5 107,-1247.5 209,-1247.5 209,-1228.5 107,-1228.5"/>
<text text-anchor="middle" x="158" y="-1235.5" font-family="Helvetica,sans-Serif" font-size="10.00">IColorPickerControl</text>
</a>
</g>
</g>
<!-- Node1&#45;&gt;Node8 -->
<g id="edge7" class="edge"><title>Node1&#45;&gt;Node8</title>
<path fill="none" stroke="midnightblue" d="M27.9701,-704.023C32.6211,-796.451 53.8289,-1179.07 88,-1219 93.0086,-1224.85 99.6384,-1228.99 106.81,-1231.89"/>
<polygon fill="midnightblue" stroke="midnightblue" points="31.4546,-703.62 27.4645,-693.806 24.4631,-703.967 31.4546,-703.62"/>
</g>
<!-- Node9 -->
<g id="node9" class="node"><title>Node9</title>
<g id="a_node9"><a xlink:href="class_i_corner_resizer_control.html" target="_top" xlink:title="A control for resizing the plug&#45;in window by clicking and dragging in the bottom right&#45;hand corner Th...">
<polygon fill="white" stroke="black" points="101,-1190.5 101,-1209.5 215,-1209.5 215,-1190.5 101,-1190.5"/>
<text text-anchor="middle" x="158" y="-1197.5" font-family="Helvetica,sans-Serif" font-size="10.00">ICornerResizerControl</text>
</a>
</g>
</g>
<!-- Node1&#45;&gt;Node9 -->
<g id="edge8" class="edge"><title>Node1&#45;&gt;Node9</title>
<path fill="none" stroke="midnightblue" d="M26.6065,-704.043C25.379,-787.686 24.9314,-1107.94 88,-1181 91.5723,-1185.14 95.955,-1188.42 100.764,-1191.01"/>
<polygon fill="midnightblue" stroke="midnightblue" points="30.109,-703.919 26.7783,-693.861 23.11,-703.801 30.109,-703.919"/>
</g>
<!-- Node10 -->
<g id="node10" class="node"><title>Node10</title>
<g id="a_node10"><a xlink:href="class_i_dir_browse_control_base.html" target="_top" xlink:title="An abstract IControl base class that you can inherit from in order to make a control that pops up a m...">
<polygon fill="white" stroke="black" points="98.5,-1152.5 98.5,-1171.5 217.5,-1171.5 217.5,-1152.5 98.5,-1152.5"/>
<text text-anchor="middle" x="158" y="-1159.5" font-family="Helvetica,sans-Serif" font-size="10.00">IDirBrowseControlBase</text>
</a>
</g>
</g>
<!-- Node1&#45;&gt;Node10 -->
<g id="edge9" class="edge"><title>Node1&#45;&gt;Node10</title>
<path fill="none" stroke="midnightblue" d="M26.834,-704.017C26.5863,-783.554 29.7138,-1076.16 88,-1143 91.348,-1146.84 95.3934,-1149.94 99.827,-1152.43"/>
<polygon fill="midnightblue" stroke="midnightblue" points="30.3346,-703.899 26.8889,-693.88 23.3347,-703.861 30.3346,-703.899"/>
</g>
<!-- Node12 -->
<g id="node12" class="node"><title>Node12</title>
<g id="a_node12"><a xlink:href="class_i_f_p_s_display_control.html" target="_top" xlink:title="Performance display meter, based on code from NanoVG This is a special control that lives outside the...">
<polygon fill="white" stroke="black" points="106,-1114.5 106,-1133.5 210,-1133.5 210,-1114.5 106,-1114.5"/>
<text text-anchor="middle" x="158" y="-1121.5" font-family="Helvetica,sans-Serif" font-size="10.00">IFPSDisplayControl</text>
</a>
</g>
</g>
<!-- Node1&#45;&gt;Node12 -->
<g id="edge11" class="edge"><title>Node1&#45;&gt;Node12</title>
<path fill="none" stroke="midnightblue" d="M27.1035,-704.253C27.9044,-779.869 34.5442,-1044.42 88,-1105 92.8503,-1110.5 99.1299,-1114.47 105.922,-1117.33"/>
<polygon fill="midnightblue" stroke="midnightblue" points="30.5998,-703.771 27.0189,-693.8 23.6001,-703.828 30.5998,-703.771"/>
</g>
<!-- Node13 -->
<g id="node13" class="node"><title>Node13</title>
<g id="a_node13"><a xlink:href="class_i_graphics_live_edit.html" target="_top" xlink:title="A control to enable live modification of control layout in an IGraphics context in debug builds This ...">
<polygon fill="white" stroke="black" points="111,-1076.5 111,-1095.5 205,-1095.5 205,-1076.5 111,-1076.5"/>
<text text-anchor="middle" x="158" y="-1083.5" font-family="Helvetica,sans-Serif" font-size="10.00">IGraphicsLiveEdit</text>
</a>
</g>
</g>
<!-- Node1&#45;&gt;Node13 -->
<g id="edge12" class="edge"><title>Node1&#45;&gt;Node13</title>
<path fill="none" stroke="midnightblue" d="M27.4134,-703.779C29.2899,-774.35 39.1921,-1012.46 88,-1067 94.0488,-1073.76 102.259,-1078.21 110.905,-1081.12"/>
<polygon fill="midnightblue" stroke="midnightblue" points="30.9084,-703.525 27.1693,-693.612 23.9104,-703.693 30.9084,-703.525"/>
</g>
<!-- Node14 -->
<g id="node14" class="node"><title>Node14</title>
<g id="a_node14"><a xlink:href="class_i_knob_control_base.html" target="_top" xlink:title="A base class for knob/dial controls, to handle mouse action and ballistics. ">
<polygon fill="white" stroke="red" points="110,-1038.5 110,-1057.5 206,-1057.5 206,-1038.5 110,-1038.5"/>
<text text-anchor="middle" x="158" y="-1045.5" font-family="Helvetica,sans-Serif" font-size="10.00">IKnobControlBase</text>
</a>
</g>
</g>
<!-- Node1&#45;&gt;Node14 -->
<g id="edge13" class="edge"><title>Node1&#45;&gt;Node14</title>
<path fill="none" stroke="midnightblue" d="M27.8018,-703.913C30.864,-770.003 43.9631,-980.631 88,-1029 93.8553,-1035.43 101.667,-1039.77 109.929,-1042.67"/>
<polygon fill="midnightblue" stroke="midnightblue" points="31.2862,-703.477 27.3543,-693.639 24.2928,-703.781 31.2862,-703.477"/>
</g>
<!-- Node23 -->
<g id="node23" class="node"><title>Node23</title>
<g id="a_node23"><a xlink:href="class_i_lambda_control.html" target="_top" xlink:title="A control that can be specialised with a lambda function, for quick experiments without making a cust...">
<polygon fill="white" stroke="black" points="115,-1000.5 115,-1019.5 201,-1019.5 201,-1000.5 115,-1000.5"/>
<text text-anchor="middle" x="158" y="-1007.5" font-family="Helvetica,sans-Serif" font-size="10.00">ILambdaControl</text>
</a>
</g>
</g>
<!-- Node1&#45;&gt;Node23 -->
<g id="edge22" class="edge"><title>Node1&#45;&gt;Node23</title>
<path fill="none" stroke="midnightblue" d="M28.2908,-704.077C32.6349,-765.416 48.7156,-948.756 88,-991 95.0229,-998.552 104.745,-1003.2 114.678,-1006.04"/>
<polygon fill="midnightblue" stroke="midnightblue" points="31.763,-703.547 27.594,-693.807 24.779,-704.021 31.763,-703.547"/>
</g>
<!-- Node24 -->
<g id="node24" class="node"><title>Node24</title>
<g id="a_node24"><a xlink:href="class_i_panel_control.html" target="_top" xlink:title="A basic control to fill a rectangle with a color or gradient. ">
<polygon fill="white" stroke="black" points="120,-962.5 120,-981.5 196,-981.5 196,-962.5 120,-962.5"/>
<text text-anchor="middle" x="158" y="-969.5" font-family="Helvetica,sans-Serif" font-size="10.00">IPanelControl</text>
</a>
</g>
</g>
<!-- Node1&#45;&gt;Node24 -->
<g id="edge23" class="edge"><title>Node1&#45;&gt;Node24</title>
<path fill="none" stroke="midnightblue" d="M28.8719,-703.761C34.5487,-759.577 53.3398,-916.718 88,-953 96.3253,-961.715 108.248,-966.553 119.846,-969.202"/>
<polygon fill="midnightblue" stroke="midnightblue" points="32.3484,-703.349 27.8845,-693.741 25.3821,-704.036 32.3484,-703.349"/>
</g>
<!-- Node25 -->
<g id="node25" class="node"><title>Node25</title>
<g id="a_node25"><a xlink:href="class_i_popup_menu_control.html" target="_top" xlink:title="A base control for a pop&#45;up menu/drop&#45;down list that stays within the bounds of the IGraphics context...">
<polygon fill="white" stroke="black" points="106.5,-924.5 106.5,-943.5 209.5,-943.5 209.5,-924.5 106.5,-924.5"/>
<text text-anchor="middle" x="158" y="-931.5" font-family="Helvetica,sans-Serif" font-size="10.00">IPopupMenuControl</text>
</a>
</g>
</g>
<!-- Node1&#45;&gt;Node25 -->
<g id="edge24" class="edge"><title>Node1&#45;&gt;Node25</title>
<path fill="none" stroke="midnightblue" d="M26.1048,-703.782C25.2351,-748.084 29.6154,-855.997 88,-915 93.1563,-920.211 99.6008,-924.029 106.466,-926.82"/>
<polygon fill="midnightblue" stroke="midnightblue" points="29.6118,-703.615 26.429,-693.51 22.6152,-703.394 29.6118,-703.615"/>
</g>
<!-- Node26 -->
<g id="node26" class="node"><title>Node26</title>
<g id="a_node26"><a xlink:href="class_i_slider_control_base.html" target="_top" xlink:title="A base class for slider/fader controls, to handle mouse action and ballistics. ">
<polygon fill="white" stroke="red" points="109,-886.5 109,-905.5 207,-905.5 207,-886.5 109,-886.5"/>
<text text-anchor="middle" x="158" y="-893.5" font-family="Helvetica,sans-Serif" font-size="10.00">ISliderControlBase</text>
</a>
</g>
</g>
<!-- Node1&#45;&gt;Node26 -->
<g id="edge25" class="edge"><title>Node1&#45;&gt;Node26</title>
<path fill="none" stroke="midnightblue" d="M27.3396,-703.69C29.1097,-742.565 38.7052,-829.516 88,-877 93.8166,-882.603 101.128,-886.586 108.8,-889.409"/>
<polygon fill="midnightblue" stroke="midnightblue" points="30.8369,-703.548 27.0135,-693.667 23.8406,-703.776 30.8369,-703.548"/>
</g>
<!-- Node27 -->
<g id="node27" class="node"><title>Node27</title>
<g id="a_node27"><a xlink:href="class_i_s_v_g_control.html" target="_top" xlink:title="A basic control to draw an SVG image to the screen. ">
<polygon fill="white" stroke="black" points="122,-848.5 122,-867.5 194,-867.5 194,-848.5 122,-848.5"/>
<text text-anchor="middle" x="158" y="-855.5" font-family="Helvetica,sans-Serif" font-size="10.00">ISVGControl</text>
</a>
</g>
</g>
<!-- Node1&#45;&gt;Node27 -->
<g id="edge26" class="edge"><title>Node1&#45;&gt;Node27</title>
<path fill="none" stroke="midnightblue" d="M29.1443,-703.854C33.7794,-736.835 47.7943,-802.854 88,-839 97.2399,-847.307 109.79,-852.023 121.654,-854.687"/>
<polygon fill="midnightblue" stroke="midnightblue" points="32.5843,-703.156 27.8684,-693.669 25.6386,-704.027 32.5843,-703.156"/>
</g>
<!-- Node28 -->
<g id="node28" class="node"><title>Node28</title>
<g id="a_node28"><a xlink:href="class_i_switch_control_base.html" target="_top" xlink:title="A base class for switch controls. ">
<polygon fill="white" stroke="red" points="106,-810.5 106,-829.5 210,-829.5 210,-810.5 106,-810.5"/>
<text text-anchor="middle" x="158" y="-817.5" font-family="Helvetica,sans-Serif" font-size="10.00">ISwitchControlBase</text>
</a>
</g>
</g>
<!-- Node1&#45;&gt;Node28 -->
<g id="edge27" class="edge"><title>Node1&#45;&gt;Node28</title>
<path fill="none" stroke="midnightblue" d="M31.8627,-703.381C39.4206,-729.475 56.503,-775.558 88,-801 93.2194,-805.216 99.3071,-808.499 105.664,-811.055"/>
<polygon fill="midnightblue" stroke="midnightblue" points="35.1892,-702.275 29.1925,-693.54 28.4335,-704.108 35.1892,-702.275"/>
</g>
<!-- Node29 -->
<g id="node29" class="node"><title>Node29</title>
<g id="a_node29"><a xlink:href="class_i_text_control.html" target="_top" xlink:title="A basic control to display some text. ">
<polygon fill="white" stroke="red" points="122.5,-772.5 122.5,-791.5 193.5,-791.5 193.5,-772.5 122.5,-772.5"/>
<text text-anchor="middle" x="158" y="-779.5" font-family="Helvetica,sans-Serif" font-size="10.00">ITextControl</text>
</a>
</g>
</g>
<!-- Node1&#45;&gt;Node29 -->
<g id="edge28" class="edge"><title>Node1&#45;&gt;Node29</title>
<path fill="none" stroke="midnightblue" d="M36.6912,-702.659C47.025,-720.734 65.0539,-747.604 88,-763 98.1113,-769.785 110.593,-774.159 122.148,-776.974"/>
<polygon fill="midnightblue" stroke="midnightblue" points="39.6318,-700.742 31.7594,-693.652 33.4918,-704.104 39.6318,-700.742"/>
</g>
<!-- Node30 -->
<g id="node30" class="node"><title>Node30</title>
<g id="a_node30"><a xlink:href="class_i_text_entry_control.html" target="_top" xlink:title="A Text entry widget drawn by IGraphics. ">
<polygon fill="white" stroke="black" points="111,-734.5 111,-753.5 205,-753.5 205,-734.5 111,-734.5"/>
<text text-anchor="middle" x="158" y="-741.5" font-family="Helvetica,sans-Serif" font-size="10.00">ITextEntryControl</text>
</a>
</g>
</g>
<!-- Node1&#45;&gt;Node30 -->
<g id="edge29" class="edge"><title>Node1&#45;&gt;Node30</title>
<path fill="none" stroke="midnightblue" d="M46.9359,-699.812C58.4043,-708.272 73.3984,-718.299 88,-725 96.1307,-728.731 105.146,-731.867 113.905,-734.446"/>
<polygon fill="midnightblue" stroke="midnightblue" points="49,-696.984 38.9179,-693.728 44.7689,-702.561 49,-696.984"/>
</g>
<!-- Node31 -->
<g id="node31" class="node"><title>Node31</title>
<g id="a_node31"><a xlink:href="class_i_v_keyboard_control.html" target="_top" xlink:title="Vectorial keyboard control. ">
<polygon fill="white" stroke="black" points="108.5,-696.5 108.5,-715.5 207.5,-715.5 207.5,-696.5 108.5,-696.5"/>
<text text-anchor="middle" x="158" y="-703.5" font-family="Helvetica,sans-Serif" font-size="10.00">IVKeyboardControl</text>
</a>
</g>
</g>
<!-- Node1&#45;&gt;Node31 -->
<g id="edge30" class="edge"><title>Node1&#45;&gt;Node31</title>
<path fill="none" stroke="midnightblue" d="M61.6823,-689.869C76.0016,-692.293 92.8505,-695.144 108.368,-697.77"/>
<polygon fill="midnightblue" stroke="midnightblue" points="62.2018,-686.408 51.758,-688.19 61.0338,-693.309 62.2018,-686.408"/>
</g>
<!-- Node32 -->
<g id="node32" class="node"><title>Node32</title>
<g id="a_node32"><a xlink:href="class_i_v_scope_control.html" target="_top" xlink:title="Vectorial multichannel capable oscilloscope control. ">
<polygon fill="white" stroke="black" points="88,-647 88,-677 228,-677 228,-647 88,-647"/>
<text text-anchor="start" x="96" y="-665" font-family="Helvetica,sans-Serif" font-size="10.00">IVScopeControl&lt; MAXNC,</text>
<text text-anchor="middle" x="158" y="-654" font-family="Helvetica,sans-Serif" font-size="10.00"> MAXBUF, QUEUE_SIZE &gt;</text>
</a>
</g>
</g>
<!-- Node1&#45;&gt;Node32 -->
<g id="edge31" class="edge"><title>Node1&#45;&gt;Node32</title>
<path fill="none" stroke="midnightblue" d="M61.6266,-678.14C69.8104,-676.755 78.8229,-675.23 87.9423,-673.687"/>
<polygon fill="midnightblue" stroke="midnightblue" points="61.0338,-674.691 51.758,-679.81 62.2018,-681.592 61.0338,-674.691"/>
</g>
<!-- Node33 -->
<g id="node33" class="node"><title>Node33</title>
<g id="a_node33"><a xlink:href="class_i_v_track_control_base.html" target="_top" xlink:title="A base class for mult&#45;strip/track controls, such as multi&#45;sliders, meters. ">
<polygon fill="white" stroke="red" points="105.5,-608.5 105.5,-627.5 210.5,-627.5 210.5,-608.5 105.5,-608.5"/>
<text text-anchor="middle" x="158" y="-615.5" font-family="Helvetica,sans-Serif" font-size="10.00">IVTrackControlBase</text>
</a>
</g>
</g>
<!-- Node1&#45;&gt;Node33 -->
<g id="edge32" class="edge"><title>Node1&#45;&gt;Node33</title>
<path fill="none" stroke="midnightblue" d="M45.0592,-667.587C56.6224,-657.817 72.3474,-645.836 88,-638 96.3647,-633.813 105.75,-630.362 114.841,-627.576"/>
<polygon fill="midnightblue" stroke="midnightblue" points="42.6825,-665.016 37.4355,-674.22 47.2772,-670.297 42.6825,-665.016"/>
</g>
<!-- Node34 -->
<g id="node34" class="node"><title>Node34</title>
<g id="a_node34"><a xlink:href="class_i_v_x_y_pad_control.html" target="_top" xlink:title="IVXYPadControl">
<polygon fill="white" stroke="black" points="113.5,-570.5 113.5,-589.5 202.5,-589.5 202.5,-570.5 113.5,-570.5"/>
<text text-anchor="middle" x="158" y="-577.5" font-family="Helvetica,sans-Serif" font-size="10.00">IVXYPadControl</text>
</a>
</g>
</g>
<!-- Node1&#45;&gt;Node34 -->
<g id="edge33" class="edge"><title>Node1&#45;&gt;Node34</title>
<path fill="none" stroke="midnightblue" d="M35.593,-665.377C45.5091,-645.94 63.6331,-615.977 88,-599 95.5441,-593.744 104.492,-589.939 113.402,-587.185"/>
<polygon fill="midnightblue" stroke="midnightblue" points="32.4024,-663.934 31.1661,-674.457 38.6944,-667.002 32.4024,-663.934"/>
</g>
<!-- Node35 -->
<g id="node35" class="node"><title>Node35</title>
<g id="a_node35"><a xlink:href="class_test_animation_control.html" target="_top" xlink:title="Control to test animation. ">
<polygon fill="white" stroke="black" points="102.5,-532.5 102.5,-551.5 213.5,-551.5 213.5,-532.5 102.5,-532.5"/>
<text text-anchor="middle" x="158" y="-539.5" font-family="Helvetica,sans-Serif" font-size="10.00">TestAnimationControl</text>
</a>
</g>
</g>
<!-- Node1&#45;&gt;Node35 -->
<g id="edge34" class="edge"><title>Node1&#45;&gt;Node35</title>
<path fill="none" stroke="midnightblue" d="M31.3711,-664.412C38.483,-637.144 55.1886,-588.056 88,-561 92.6973,-557.127 98.1243,-554.04 103.83,-551.581"/>
<polygon fill="midnightblue" stroke="midnightblue" points="27.9224,-663.781 28.9608,-674.325 34.7243,-665.435 27.9224,-663.781"/>
</g>
<!-- Node36 -->
<g id="node36" class="node"><title>Node36</title>
<g id="a_node36"><a xlink:href="class_test_bezier_control.html" target="_top" xlink:title="Control to test drawing bezier curves. ">
<polygon fill="white" stroke="black" points="110.5,-494.5 110.5,-513.5 205.5,-513.5 205.5,-494.5 110.5,-494.5"/>
<text text-anchor="middle" x="158" y="-501.5" font-family="Helvetica,sans-Serif" font-size="10.00">TestBezierControl</text>
</a>
</g>
</g>
<!-- Node1&#45;&gt;Node36 -->
<g id="edge35" class="edge"><title>Node1&#45;&gt;Node36</title>
<path fill="none" stroke="midnightblue" d="M28.7863,-664.328C32.9344,-630.423 46.3035,-560.971 88,-523 94.3388,-517.228 102.273,-513.187 110.483,-510.363"/>
<polygon fill="midnightblue" stroke="midnightblue" points="25.2961,-664.05 27.7054,-674.367 32.2559,-664.799 25.2961,-664.05"/>
</g>
<!-- Node37 -->
<g id="node37" class="node"><title>Node37</title>
<g id="a_node37"><a xlink:href="class_test_color_control.html" target="_top" xlink:title="Control to colors. ">
<polygon fill="white" stroke="black" points="112.5,-456.5 112.5,-475.5 203.5,-475.5 203.5,-456.5 112.5,-456.5"/>
<text text-anchor="middle" x="158" y="-463.5" font-family="Helvetica,sans-Serif" font-size="10.00">TestColorControl</text>
</a>
</g>
</g>
<!-- Node1&#45;&gt;Node37 -->
<g id="edge36" class="edge"><title>Node1&#45;&gt;Node37</title>
<path fill="none" stroke="midnightblue" d="M27.1174,-664.271C28.461,-624.494 37.2866,-534.277 88,-485 94.6834,-478.506 103.373,-474.186 112.32,-471.324"/>
<polygon fill="midnightblue" stroke="midnightblue" points="23.6137,-664.417 26.9052,-674.488 30.6122,-664.563 23.6137,-664.417"/>
</g>
<!-- Node38 -->
<g id="node38" class="node"><title>Node38</title>
<g id="a_node38"><a xlink:href="class_test_cursor_control.html" target="_top" xlink:title="Control to test changing the platform cursor. ">
<polygon fill="white" stroke="black" points="109.5,-418.5 109.5,-437.5 206.5,-437.5 206.5,-418.5 109.5,-418.5"/>
<text text-anchor="middle" x="158" y="-425.5" font-family="Helvetica,sans-Serif" font-size="10.00">TestCursorControl</text>
</a>
</g>
</g>
<!-- Node1&#45;&gt;Node38 -->
<g id="edge37" class="edge"><title>Node1&#45;&gt;Node38</title>
<path fill="none" stroke="midnightblue" d="M29.5211,-664.271C36.4367,-613.162 57.2586,-478.262 88,-447 93.8369,-441.064 101.345,-436.934 109.249,-434.071"/>
<polygon fill="midnightblue" stroke="midnightblue" points="26.0297,-663.977 28.1924,-674.348 32.9696,-664.892 26.0297,-663.977"/>
</g>
<!-- Node39 -->
<g id="node39" class="node"><title>Node39</title>
<g id="a_node39"><a xlink:href="class_test_draw_context_control.html" target="_top" xlink:title="Control to test obtaining a drawing API (NanoVG, LICE, Cairo, AGG etc) context and using that API wit...">
<polygon fill="white" stroke="black" points="95.5,-380.5 95.5,-399.5 220.5,-399.5 220.5,-380.5 95.5,-380.5"/>
<text text-anchor="middle" x="158" y="-387.5" font-family="Helvetica,sans-Serif" font-size="10.00">TestDrawContextControl</text>
</a>
</g>
</g>
<!-- Node1&#45;&gt;Node39 -->
<g id="edge38" class="edge"><title>Node1&#45;&gt;Node39</title>
<path fill="none" stroke="midnightblue" d="M28.7712,-664.183C34.2315,-607.471 52.6127,-446.218 88,-409 91.6815,-405.128 96.0729,-402.021 100.832,-399.531"/>
<polygon fill="midnightblue" stroke="midnightblue" points="25.2677,-664.059 27.8253,-674.341 32.2375,-664.708 25.2677,-664.059"/>
</g>
<!-- Node40 -->
<g id="node40" class="node"><title>Node40</title>
<g id="a_node40"><a xlink:href="class_test_drop_shadow_control.html" target="_top" xlink:title="Control to test layer drop shadows. ">
<polygon fill="white" stroke="black" points="96,-342.5 96,-361.5 220,-361.5 220,-342.5 96,-342.5"/>
<text text-anchor="middle" x="158" y="-349.5" font-family="Helvetica,sans-Serif" font-size="10.00">TestDropShadowControl</text>
</a>
</g>
</g>
<!-- Node1&#45;&gt;Node40 -->
<g id="edge39" class="edge"><title>Node1&#45;&gt;Node40</title>
<path fill="none" stroke="midnightblue" d="M28.1799,-664.334C32.2757,-602.615 47.8841,-414.297 88,-371 91.5468,-367.172 95.787,-364.089 100.398,-361.609"/>
<polygon fill="midnightblue" stroke="midnightblue" points="24.6866,-664.119 27.5458,-674.321 31.6725,-664.563 24.6866,-664.119"/>
</g>
<!-- Node41 -->
<g id="node41" class="node"><title>Node41</title>
<g id="a_node41"><a xlink:href="class_test_font_control.html" target="_top" xlink:title="Control to test drawing fonts. ">
<polygon fill="white" stroke="black" points="114.5,-304.5 114.5,-323.5 201.5,-323.5 201.5,-304.5 114.5,-304.5"/>
<text text-anchor="middle" x="158" y="-311.5" font-family="Helvetica,sans-Serif" font-size="10.00">TestFontControl</text>
</a>
</g>
</g>
<!-- Node1&#45;&gt;Node41 -->
<g id="edge40" class="edge"><title>Node1&#45;&gt;Node41</title>
<path fill="none" stroke="midnightblue" d="M27.7325,-664.159C30.5974,-597.402 43.1998,-382.353 88,-333 94.848,-325.456 104.388,-320.796 114.194,-317.945"/>
<polygon fill="midnightblue" stroke="midnightblue" points="24.2337,-664.063 27.3287,-674.195 31.228,-664.344 24.2337,-664.063"/>
</g>
<!-- Node42 -->
<g id="node42" class="node"><title>Node42</title>
<g id="a_node42"><a xlink:href="class_test_g_l_control.html" target="_top" xlink:title="TestGLControl">
<polygon fill="white" stroke="black" points="118,-266.5 118,-285.5 198,-285.5 198,-266.5 118,-266.5"/>
<text text-anchor="middle" x="158" y="-273.5" font-family="Helvetica,sans-Serif" font-size="10.00">TestGLControl</text>
</a>
</g>
</g>
<!-- Node1&#45;&gt;Node42 -->
<g id="edge41" class="edge"><title>Node1&#45;&gt;Node42</title>
<path fill="none" stroke="midnightblue" d="M27.367,-663.913C29.085,-592.246 38.5127,-350.43 88,-295 95.6129,-286.473 106.665,-281.621 117.702,-278.904"/>
<polygon fill="midnightblue" stroke="midnightblue" points="23.8609,-664.166 27.1462,-674.239 30.8593,-664.316 23.8609,-664.166"/>
</g>
<!-- Node43 -->
<g id="node43" class="node"><title>Node43</title>
<g id="a_node43"><a xlink:href="class_test_image_control.html" target="_top" xlink:title="Control to test drawing bitmaps. ">
<polygon fill="white" stroke="black" points="110.5,-228.5 110.5,-247.5 205.5,-247.5 205.5,-228.5 110.5,-228.5"/>
<text text-anchor="middle" x="158" y="-235.5" font-family="Helvetica,sans-Serif" font-size="10.00">TestImageControl</text>
</a>
</g>
</g>
<!-- Node1&#45;&gt;Node43 -->
<g id="edge42" class="edge"><title>Node1&#45;&gt;Node43</title>
<path fill="none" stroke="midnightblue" d="M27.0522,-664.424C27.6541,-589.05 33.6301,-318.742 88,-257 93.9123,-250.286 101.957,-245.846 110.467,-242.931"/>
<polygon fill="midnightblue" stroke="midnightblue" points="23.5523,-664.416 26.9962,-674.436 30.5522,-664.456 23.5523,-664.416"/>
</g>
<!-- Node44 -->
<g id="node44" class="node"><title>Node44</title>
<g id="a_node44"><a xlink:href="class_test_keyboard_control.html" target="_top" xlink:title="Control to test keyboard input. ">
<polygon fill="white" stroke="black" points="103.5,-190.5 103.5,-209.5 212.5,-209.5 212.5,-190.5 103.5,-190.5"/>
<text text-anchor="middle" x="158" y="-197.5" font-family="Helvetica,sans-Serif" font-size="10.00">TestKeyboardControl</text>
</a>
</g>
</g>
<!-- Node1&#45;&gt;Node44 -->
<g id="edge43" class="edge"><title>Node1&#45;&gt;Node44</title>
<path fill="none" stroke="midnightblue" d="M26.797,-664.242C26.3842,-584.435 28.8947,-286.899 88,-219 92.2421,-214.127 97.6078,-210.449 103.466,-207.683"/>
<polygon fill="midnightblue" stroke="midnightblue" points="23.2981,-664.41 26.8728,-674.384 30.2979,-664.358 23.2981,-664.41"/>
</g>
<!-- Node45 -->
<g id="node45" class="node"><title>Node45</title>
<g id="a_node45"><a xlink:href="class_test_m_p_s_control.html" target="_top" xlink:title="TestMPSControl">
<polygon fill="white" stroke="black" points="113.5,-152.5 113.5,-171.5 202.5,-171.5 202.5,-152.5 113.5,-152.5"/>
<text text-anchor="middle" x="158" y="-159.5" font-family="Helvetica,sans-Serif" font-size="10.00">TestMPSControl</text>
</a>
</g>
</g>
<!-- Node1&#45;&gt;Node45 -->
<g id="edge44" class="edge"><title>Node1&#45;&gt;Node45</title>
<path fill="none" stroke="midnightblue" d="M26.5786,-664.26C25.1986,-580.466 24.0975,-255.138 88,-181 94.4897,-173.471 103.662,-168.792 113.206,-165.917"/>
<polygon fill="midnightblue" stroke="midnightblue" points="23.0823,-664.496 26.7685,-674.429 30.0811,-664.365 23.0823,-664.496"/>
</g>
<!-- Node46 -->
<g id="node46" class="node"><title>Node46</title>
<g id="a_node46"><a xlink:href="class_test_shadow_gradient_control.html" target="_top" xlink:title="Control to test drawing shadows with gradients. ">
<polygon fill="white" stroke="black" points="88,-114.5 88,-133.5 228,-133.5 228,-114.5 88,-114.5"/>
<text text-anchor="middle" x="158" y="-121.5" font-family="Helvetica,sans-Serif" font-size="10.00">TestShadowGradientControl</text>
</a>
</g>
</g>
<!-- Node1&#45;&gt;Node46 -->
<g id="edge45" class="edge"><title>Node1&#45;&gt;Node46</title>
<path fill="none" stroke="midnightblue" d="M27.9405,-664.038C32.4926,-571.08 53.4406,-183.437 88,-143 91.229,-139.222 95.1335,-136.16 99.4236,-133.684"/>
<polygon fill="midnightblue" stroke="midnightblue" points="24.4419,-663.928 27.4567,-674.085 31.4338,-664.265 24.4419,-663.928"/>
</g>
<!-- Node47 -->
<g id="node47" class="node"><title>Node47</title>
<g id="a_node47"><a xlink:href="class_test_size_control.html" target="_top" xlink:title="Control to display the size of a region. ">
<polygon fill="white" stroke="black" points="114.5,-76.5 114.5,-95.5 201.5,-95.5 201.5,-76.5 114.5,-76.5"/>
<text text-anchor="middle" x="158" y="-83.5" font-family="Helvetica,sans-Serif" font-size="10.00">TestSizeControl</text>
</a>
</g>
</g>
<!-- Node1&#45;&gt;Node47 -->
<g id="edge46" class="edge"><title>Node1&#45;&gt;Node47</title>
<path fill="none" stroke="midnightblue" d="M27.7788,-664.191C31.7491,-567.568 51.0065,-148.607 88,-105 94.6715,-97.1359 104.27,-92.3739 114.196,-89.5292"/>
<polygon fill="midnightblue" stroke="midnightblue" points="24.2758,-664.196 27.3702,-674.329 31.2702,-664.478 24.2758,-664.196"/>
</g>
<!-- Node48 -->
<g id="node48" class="node"><title>Node48</title>
<g id="a_node48"><a xlink:href="class_test_s_v_g_control.html" target="_top" xlink:title="Control to test drawing SVGs. ">
<polygon fill="white" stroke="black" points="113.5,-38.5 113.5,-57.5 202.5,-57.5 202.5,-38.5 113.5,-38.5"/>
<text text-anchor="middle" x="158" y="-45.5" font-family="Helvetica,sans-Serif" font-size="10.00">TestSVGControl</text>
</a>
</g>
</g>
<!-- Node1&#45;&gt;Node48 -->
<g id="edge47" class="edge"><title>Node1&#45;&gt;Node48</title>
<path fill="none" stroke="midnightblue" d="M27.6444,-664.161C31.081,-563.67 48.5905,-113.758 88,-67 94.486,-59.3045 103.775,-54.5767 113.445,-51.7089"/>
<polygon fill="midnightblue" stroke="midnightblue" points="24.1457,-664.069 27.3093,-674.18 31.1417,-664.303 24.1457,-664.069"/>
</g>
<!-- Node49 -->
<g id="node49" class="node"><title>Node49</title>
<g id="a_node49"><a xlink:href="class_test_text_control.html" target="_top" xlink:title="Control to test drawing text. ">
<polygon fill="white" stroke="black" points="114.5,-0.5 114.5,-19.5 201.5,-19.5 201.5,-0.5 114.5,-0.5"/>
<text text-anchor="middle" x="158" y="-7.5" font-family="Helvetica,sans-Serif" font-size="10.00">TestTextControl</text>
</a>
</g>
</g>
<!-- Node1&#45;&gt;Node49 -->
<g id="edge48" class="edge"><title>Node1&#45;&gt;Node49</title>
<path fill="none" stroke="midnightblue" d="M27.5308,-663.935C30.474,-559.278 46.1966,-78.8855 88,-29 94.7036,-21.0004 104.437,-16.2049 114.49,-13.372"/>
<polygon fill="midnightblue" stroke="midnightblue" points="24.0281,-663.987 27.2529,-674.079 31.0255,-664.178 24.0281,-663.987"/>
</g>
<!-- Node4 -->
<g id="node4" class="node"><title>Node4</title>
<g id="a_node4"><a xlink:href="class_i_b_switch_control.html" target="_top" xlink:title="A bitmap switch control. ">
<polygon fill="white" stroke="black" points="277,-1304.5 277,-1323.5 365,-1323.5 365,-1304.5 277,-1304.5"/>
<text text-anchor="middle" x="321" y="-1311.5" font-family="Helvetica,sans-Serif" font-size="10.00">IBSwitchControl</text>
</a>
</g>
</g>
<!-- Node3&#45;&gt;Node4 -->
<g id="edge3" class="edge"><title>Node3&#45;&gt;Node4</title>
<path fill="none" stroke="midnightblue" d="M209.235,-1314C230.94,-1314 256.081,-1314 276.919,-1314"/>
<polygon fill="midnightblue" stroke="midnightblue" points="209.212,-1310.5 199.212,-1314 209.212,-1317.5 209.212,-1310.5"/>
</g>
<!-- Node6 -->
<g id="node6" class="node"><title>Node6</title>
<g id="a_node6"><a xlink:href="class_i_b_button_control.html" target="_top" xlink:title="A bitmap button/momentary switch control. ">
<polygon fill="white" stroke="black" points="278,-1266.5 278,-1285.5 364,-1285.5 364,-1266.5 278,-1266.5"/>
<text text-anchor="middle" x="321" y="-1273.5" font-family="Helvetica,sans-Serif" font-size="10.00">IBButtonControl</text>
</a>
</g>
</g>
<!-- Node5&#45;&gt;Node6 -->
<g id="edge5" class="edge"><title>Node5&#45;&gt;Node6</title>
<path fill="none" stroke="midnightblue" d="M219.093,-1276C238.631,-1276 259.887,-1276 277.829,-1276"/>
<polygon fill="midnightblue" stroke="midnightblue" points="219.059,-1272.5 209.059,-1276 219.059,-1279.5 219.059,-1272.5"/>
</g>
<!-- Node7 -->
<g id="node7" class="node"><title>Node7</title>
<g id="a_node7"><a xlink:href="class_i_v_button_control.html" target="_top" xlink:title="A vector button/momentary switch control. ">
<polygon fill="white" stroke="black" points="278,-1228.5 278,-1247.5 364,-1247.5 364,-1228.5 278,-1228.5"/>
<text text-anchor="middle" x="321" y="-1235.5" font-family="Helvetica,sans-Serif" font-size="10.00">IVButtonControl</text>
</a>
</g>
</g>
<!-- Node5&#45;&gt;Node7 -->
<g id="edge6" class="edge"><title>Node5&#45;&gt;Node7</title>
<path fill="none" stroke="midnightblue" d="M209.402,-1264.1C232.032,-1258.76 258.37,-1252.55 279.665,-1247.52"/>
<polygon fill="midnightblue" stroke="midnightblue" points="208.556,-1260.71 199.627,-1266.41 210.164,-1267.52 208.556,-1260.71"/>
</g>
<!-- Node11 -->
<g id="node11" class="node"><title>Node11</title>
<g id="a_node11"><a xlink:href="class_test_dir_browse_control.html" target="_top" xlink:title="Control to test IDirBrowseControlBase. ">
<polygon fill="white" stroke="black" points="264.5,-1190.5 264.5,-1209.5 377.5,-1209.5 377.5,-1190.5 264.5,-1190.5"/>
<text text-anchor="middle" x="321" y="-1197.5" font-family="Helvetica,sans-Serif" font-size="10.00">TestDirBrowseControl</text>
</a>
</g>
</g>
<!-- Node10&#45;&gt;Node11 -->
<g id="edge10" class="edge"><title>Node10&#45;&gt;Node11</title>
<path fill="none" stroke="midnightblue" d="M209.402,-1173.9C232.032,-1179.24 258.37,-1185.45 279.665,-1190.48"/>
<polygon fill="midnightblue" stroke="midnightblue" points="210.164,-1170.48 199.627,-1171.59 208.556,-1177.29 210.164,-1170.48"/>
</g>
<!-- Node15 -->
<g id="node15" class="node"><title>Node15</title>
<g id="a_node15"><a xlink:href="class_i_b_knob_control.html" target="_top" xlink:title="A bitmap knob/dial control that draws a frame from a stacked bitmap. ">
<polygon fill="white" stroke="red" points="281,-1152.5 281,-1171.5 361,-1171.5 361,-1152.5 281,-1152.5"/>
<text text-anchor="middle" x="321" y="-1159.5" font-family="Helvetica,sans-Serif" font-size="10.00">IBKnobControl</text>
</a>
</g>
</g>
<!-- Node14&#45;&gt;Node15 -->
<g id="edge14" class="edge"><title>Node14&#45;&gt;Node15</title>
<path fill="none" stroke="midnightblue" d="M215.621,-1059.06C220.068,-1061.25 224.271,-1063.87 228,-1067 256.621,-1091.04 236.093,-1118.14 264,-1143 268.829,-1147.3 274.673,-1150.64 280.74,-1153.22"/>
<polygon fill="midnightblue" stroke="midnightblue" points="216.806,-1055.76 206.229,-1055.15 214.112,-1062.23 216.806,-1055.76"/>
</g>
<!-- Node16 -->
<g id="node16" class="node"><title>Node16</title>
<g id="a_node16"><a xlink:href="class_i_s_v_g_knob.html" target="_top" xlink:title="A vector knob/dial control which rotates an SVG image. ">
<polygon fill="white" stroke="black" points="289.5,-1114.5 289.5,-1133.5 352.5,-1133.5 352.5,-1114.5 289.5,-1114.5"/>
<text text-anchor="middle" x="321" y="-1121.5" font-family="Helvetica,sans-Serif" font-size="10.00">ISVGKnob</text>
</a>
</g>
</g>
<!-- Node14&#45;&gt;Node16 -->
<g id="edge15" class="edge"><title>Node14&#45;&gt;Node16</title>
<path fill="none" stroke="midnightblue" d="M215.643,-1060.82C219.947,-1062.62 224.12,-1064.67 228,-1067 247.947,-1078.97 244.411,-1092.45 264,-1105 271.694,-1109.93 280.806,-1113.73 289.422,-1116.59"/>
<polygon fill="midnightblue" stroke="midnightblue" points="216.669,-1057.46 206.076,-1057.25 214.221,-1064.02 216.669,-1057.46"/>
</g>
<!-- Node17 -->
<g id="node17" class="node"><title>Node17</title>
<g id="a_node17"><a xlink:href="class_i_v_knob_control.html" target="_top" xlink:title="A vector knob control drawn using graphics primitves. ">
<polygon fill="white" stroke="black" points="281,-1076.5 281,-1095.5 361,-1095.5 361,-1076.5 281,-1076.5"/>
<text text-anchor="middle" x="321" y="-1083.5" font-family="Helvetica,sans-Serif" font-size="10.00">IVKnobControl</text>
</a>
</g>
</g>
<!-- Node14&#45;&gt;Node17 -->
<g id="edge16" class="edge"><title>Node14&#45;&gt;Node17</title>
<path fill="none" stroke="midnightblue" d="M209.555,-1059.93C232.546,-1065.36 259.338,-1071.68 280.776,-1076.74"/>
<polygon fill="midnightblue" stroke="midnightblue" points="210.164,-1056.48 199.627,-1057.59 208.556,-1063.29 210.164,-1056.48"/>
</g>
<!-- Node18 -->
<g id="node18" class="node"><title>Node18</title>
<g id="a_node18"><a xlink:href="class_test_arc_control.html" target="_top" xlink:title="Control to test drawing arcs. ">
<polygon fill="white" stroke="black" points="279.5,-1038.5 279.5,-1057.5 362.5,-1057.5 362.5,-1038.5 279.5,-1038.5"/>
<text text-anchor="middle" x="321" y="-1045.5" font-family="Helvetica,sans-Serif" font-size="10.00">TestArcControl</text>
</a>
</g>
</g>
<!-- Node14&#45;&gt;Node18 -->
<g id="edge17" class="edge"><title>Node14&#45;&gt;Node18</title>
<path fill="none" stroke="midnightblue" d="M216.071,-1048C237.022,-1048 260.292,-1048 279.492,-1048"/>
<polygon fill="midnightblue" stroke="midnightblue" points="216.001,-1044.5 206.001,-1048 216.001,-1051.5 216.001,-1044.5"/>
</g>
<!-- Node19 -->
<g id="node19" class="node"><title>Node19</title>
<g id="a_node19"><a xlink:href="class_test_blend_control.html" target="_top" xlink:title="Control to test blend methods. ">
<polygon fill="white" stroke="black" points="275,-1000.5 275,-1019.5 367,-1019.5 367,-1000.5 275,-1000.5"/>
<text text-anchor="middle" x="321" y="-1007.5" font-family="Helvetica,sans-Serif" font-size="10.00">TestBlendControl</text>
</a>
</g>
</g>
<!-- Node14&#45;&gt;Node19 -->
<g id="edge18" class="edge"><title>Node14&#45;&gt;Node19</title>
<path fill="none" stroke="midnightblue" d="M209.402,-1036.1C232.032,-1030.76 258.37,-1024.55 279.665,-1019.52"/>
<polygon fill="midnightblue" stroke="midnightblue" points="208.556,-1032.71 199.627,-1038.41 210.164,-1039.52 208.556,-1032.71"/>
</g>
<!-- Node20 -->
<g id="node20" class="node"><title>Node20</title>
<g id="a_node20"><a xlink:href="class_test_gradient_control.html" target="_top" xlink:title="Control to test drawing gradients with path based drawing backends. ">
<polygon fill="white" stroke="black" points="269,-962.5 269,-981.5 373,-981.5 373,-962.5 269,-962.5"/>
<text text-anchor="middle" x="321" y="-969.5" font-family="Helvetica,sans-Serif" font-size="10.00">TestGradientControl</text>
</a>
</g>
</g>
<!-- Node14&#45;&gt;Node20 -->
<g id="edge19" class="edge"><title>Node14&#45;&gt;Node20</title>
<path fill="none" stroke="midnightblue" d="M215.643,-1035.18C219.947,-1033.38 224.12,-1031.33 228,-1029 247.947,-1017.03 244.411,-1003.55 264,-991 269.878,-987.234 276.585,-984.128 283.265,-981.598"/>
<polygon fill="midnightblue" stroke="midnightblue" points="214.221,-1031.98 206.076,-1038.75 216.669,-1038.54 214.221,-1031.98"/>
</g>
<!-- Node21 -->
<g id="node21" class="node"><title>Node21</title>
<g id="a_node21"><a xlink:href="class_test_layer_control.html" target="_top" xlink:title="Control to test IGraphics layers. ">
<polygon fill="white" stroke="black" points="275,-924.5 275,-943.5 367,-943.5 367,-924.5 275,-924.5"/>
<text text-anchor="middle" x="321" y="-931.5" font-family="Helvetica,sans-Serif" font-size="10.00">TestLayerControl</text>
</a>
</g>
</g>
<!-- Node14&#45;&gt;Node21 -->
<g id="edge20" class="edge"><title>Node14&#45;&gt;Node21</title>
<path fill="none" stroke="midnightblue" d="M215.621,-1036.94C220.068,-1034.75 224.271,-1032.13 228,-1029 256.621,-1004.96 236.093,-977.862 264,-953 268.369,-949.107 273.569,-946.006 279.013,-943.537"/>
<polygon fill="midnightblue" stroke="midnightblue" points="214.112,-1033.77 206.229,-1040.85 216.806,-1040.24 214.112,-1033.77"/>
</g>
<!-- Node22 -->
<g id="node22" class="node"><title>Node22</title>
<g id="a_node22"><a xlink:href="class_test_multi_path_control.html" target="_top" xlink:title="Control to test drawing paths in path&#45;based drawing backends. ">
<polygon fill="white" stroke="black" points="266.5,-886.5 266.5,-905.5 375.5,-905.5 375.5,-886.5 266.5,-886.5"/>
<text text-anchor="middle" x="321" y="-893.5" font-family="Helvetica,sans-Serif" font-size="10.00">TestMultiPathControl</text>
</a>
</g>
</g>
<!-- Node14&#45;&gt;Node22 -->
<g id="edge21" class="edge"><title>Node14&#45;&gt;Node22</title>
<path fill="none" stroke="midnightblue" d="M215.348,-1037.86C219.977,-1035.49 224.292,-1032.57 228,-1029 266.263,-992.134 226.83,-952.967 264,-915 267.807,-911.112 272.437,-908.019 277.388,-905.559"/>
<polygon fill="midnightblue" stroke="midnightblue" points="213.959,-1034.65 206.137,-1041.79 216.708,-1041.09 213.959,-1034.65"/>
</g>
</g>
</svg>
        <g id="navigator" transform="translate(0 0)" fill="#404254">
                <rect fill="#f2f5e9" fill-opacity="0.5" stroke="#606060" stroke-width=".5" x="0" y="0" width="60" height="60"/>
                <use id="zoomplus" xlink:href="#zoomPlus" x="17" y="9" onmousedown="handleZoom(evt,'in')"/>
                <use id="zoomminus" xlink:href="#zoomMin" x="42" y="9" onmousedown="handleZoom(evt,'out')"/>
                <use id="reset" xlink:href="#resetDef" x="30" y="36" onmousedown="handleReset()"/>
                <g id="arrowUp" xlink:href="#dirArrow" transform="translate(30 24)" onmousedown="handlePan(0,-1)">
                  <use xlink:href="#rim" fill="#404040">
                        <set attributeName="fill" to="#808080" begin="arrowUp.mouseover" end="arrowUp.mouseout"/>
                  </use>
                  <path fill="none" stroke="white" stroke-width="1.5" d="M0,-3.0v7 M-2.5,-0.5L0,-3.0L2.5,-0.5"/>
                </g>
                <g id="arrowRight" xlink:href="#dirArrow" transform="rotate(90) translate(36 -43)" onmousedown="handlePan(1,0)">
                  <use xlink:href="#rim" fill="#404040">
                        <set attributeName="fill" to="#808080" begin="arrowRight.mouseover" end="arrowRight.mouseout"/>
                  </use>
                  <path fill="none" stroke="white" stroke-width="1.5" d="M0,-3.0v7 M-2.5,-0.5L0,-3.0L2.5,-0.5"/>
                </g>
                <g id="arrowDown" xlink:href="#dirArrow" transform="rotate(180) translate(-30 -48)" onmousedown="handlePan(0,1)">
                  <use xlink:href="#rim" fill="#404040">
                        <set attributeName="fill" to="#808080" begin="arrowDown.mouseover" end="arrowDown.mouseout"/>
                  </use>
                  <path fill="none" stroke="white" stroke-width="1.5" d="M0,-3.0v7 M-2.5,-0.5L0,-3.0L2.5,-0.5"/>
                </g>
                <g id="arrowLeft" xlink:href="#dirArrow" transform="rotate(270) translate(-36 17)" onmousedown="handlePan(-1,0)">
                  <use xlink:href="#rim" fill="#404040">
                        <set attributeName="fill" to="#808080" begin="arrowLeft.mouseover" end="arrowLeft.mouseout"/>
                  </use>
                  <path fill="none" stroke="white" stroke-width="1.5" d="M0,-3.0v7 M-2.5,-0.5L0,-3.0L2.5,-0.5"/>
                </g>
        </g>
        <svg viewBox="0 0 15 15" width="100%" height="30px" preserveAspectRatio="xMaxYMin meet">
         <g id="arrow_out" transform="scale(0.3 0.3)">
          <a xlink:href="class_i_control__inherit__graph_org.svg" target="_base">
           <rect id="button" ry="5" rx="5" y="6" x="6" height="38" width="38"
                fill="#f2f5e9" fill-opacity="0.5" stroke="#606060" stroke-width="1.0"/>
           <path id="arrow"
             d="M 11.500037,31.436501 C 11.940474,20.09759 22.043105,11.32322 32.158766,21.979434 L 37.068811,17.246167 C 37.068811,17.246167 37.088388,32 37.088388,32 L 22.160133,31.978069 C 22.160133,31.978069 26.997745,27.140456 26.997745,27.140456 C 18.528582,18.264221 13.291696,25.230495 11.500037,31.436501 z"
             style="fill:#404040;"/>
          </a>
         </g>
        </svg>
</svg>
